<mxfile host="app.diagrams.net" modified="2024-01-16T03:37:38.183Z" agent="Mozilla/5.0 (Windows NT 10.0; Win64; x64) AppleWebKit/537.36 (KHTML, like Gecko) Chrome/120.0.0.0 Safari/537.36" etag="pSrd9etfwupEi1EeMoWV" version="22.1.18" type="github">
  <diagram name="Page-1" id="GGo1JlDiYlLj3cVosGNW">
    <mxGraphModel dx="955" dy="506" grid="1" gridSize="10" guides="1" tooltips="1" connect="0" arrows="1" fold="1" page="1" pageScale="1" pageWidth="1500" pageHeight="3000" math="0" shadow="1">
      <root>
        <mxCell id="0" />
        <mxCell id="1" parent="0" />
        <mxCell id="lQ2lAUUzrBHqBKWSUGlg-22" value="" style="edgeStyle=orthogonalEdgeStyle;rounded=0;orthogonalLoop=1;jettySize=auto;html=1;fontSize=15;fontStyle=0;strokeWidth=1;fontColor=#000000;" parent="1" source="lQ2lAUUzrBHqBKWSUGlg-19" target="lQ2lAUUzrBHqBKWSUGlg-21" edge="1">
          <mxGeometry relative="1" as="geometry" />
        </mxCell>
        <mxCell id="DzYreBIAlxz-Bc4P912Z-17" style="edgeStyle=orthogonalEdgeStyle;rounded=0;orthogonalLoop=1;jettySize=auto;html=1;fontSize=15;fontStyle=0" parent="1" source="lQ2lAUUzrBHqBKWSUGlg-19" edge="1">
          <mxGeometry relative="1" as="geometry">
            <mxPoint x="340" y="490" as="targetPoint" />
          </mxGeometry>
        </mxCell>
        <mxCell id="lQ2lAUUzrBHqBKWSUGlg-19" value="p_active" style="rhombus;whiteSpace=wrap;html=1;fontSize=15;fontStyle=0;strokeWidth=1;fontColor=#000000;" parent="1" vertex="1">
          <mxGeometry x="453" y="450" width="80" height="80" as="geometry" />
        </mxCell>
        <mxCell id="lQ2lAUUzrBHqBKWSUGlg-21" value="out←d_active" style="whiteSpace=wrap;html=1;fontSize=15;fontStyle=0;strokeWidth=1;fontColor=#000000;" parent="1" vertex="1">
          <mxGeometry x="565.5" y="558" width="120" height="60" as="geometry" />
        </mxCell>
        <mxCell id="lQ2lAUUzrBHqBKWSUGlg-109" value="1" style="text;html=1;align=center;verticalAlign=middle;resizable=0;points=[];autosize=1;fontSize=15;fontStyle=0;strokeWidth=1;strokeColor=none;fontColor=#000000;" parent="1" vertex="1">
          <mxGeometry x="525.5" y="456" width="30" height="30" as="geometry" />
        </mxCell>
        <mxCell id="lQ2lAUUzrBHqBKWSUGlg-110" value="0" style="text;html=1;align=center;verticalAlign=middle;resizable=0;points=[];autosize=1;fontSize=15;fontStyle=0;strokeWidth=1;strokeColor=none;fontColor=#000000;" parent="1" vertex="1">
          <mxGeometry x="435.5" y="460" width="30" height="30" as="geometry" />
        </mxCell>
        <mxCell id="7_8doox-LUyNGBTueIZM-61" style="edgeStyle=orthogonalEdgeStyle;rounded=0;orthogonalLoop=1;jettySize=auto;html=1;fontSize=15;fontStyle=0;strokeWidth=1;fontColor=#000000;" parent="1" source="7_8doox-LUyNGBTueIZM-58" target="7_8doox-LUyNGBTueIZM-60" edge="1">
          <mxGeometry relative="1" as="geometry" />
        </mxCell>
        <mxCell id="DzYreBIAlxz-Bc4P912Z-16" style="edgeStyle=orthogonalEdgeStyle;rounded=0;orthogonalLoop=1;jettySize=auto;html=1;fontSize=15;fontStyle=0" parent="1" source="7_8doox-LUyNGBTueIZM-58" edge="1">
          <mxGeometry relative="1" as="geometry">
            <mxPoint x="340" y="658" as="targetPoint" />
          </mxGeometry>
        </mxCell>
        <mxCell id="7_8doox-LUyNGBTueIZM-58" value="p_active" style="rhombus;whiteSpace=wrap;html=1;fontSize=15;fontStyle=0;strokeWidth=1;fontColor=#000000;" parent="1" vertex="1">
          <mxGeometry x="453" y="618" width="80" height="80" as="geometry" />
        </mxCell>
        <mxCell id="DzYreBIAlxz-Bc4P912Z-3" style="edgeStyle=orthogonalEdgeStyle;rounded=0;orthogonalLoop=1;jettySize=auto;html=1;fontSize=15;fontStyle=0" parent="1" source="7_8doox-LUyNGBTueIZM-60" target="7_8doox-LUyNGBTueIZM-73" edge="1">
          <mxGeometry relative="1" as="geometry" />
        </mxCell>
        <mxCell id="7_8doox-LUyNGBTueIZM-60" value="out←d_active" style="whiteSpace=wrap;html=1;fontSize=15;fontStyle=0;strokeWidth=1;fontColor=#000000;" parent="1" vertex="1">
          <mxGeometry x="573" y="740" width="120" height="60" as="geometry" />
        </mxCell>
        <mxCell id="7_8doox-LUyNGBTueIZM-72" style="edgeStyle=orthogonalEdgeStyle;rounded=0;orthogonalLoop=1;jettySize=auto;html=1;fontSize=15;fontStyle=0;strokeWidth=1;fontColor=#000000;" parent="1" source="7_8doox-LUyNGBTueIZM-73" target="7_8doox-LUyNGBTueIZM-74" edge="1">
          <mxGeometry relative="1" as="geometry" />
        </mxCell>
        <mxCell id="DzYreBIAlxz-Bc4P912Z-15" style="edgeStyle=orthogonalEdgeStyle;rounded=0;orthogonalLoop=1;jettySize=auto;html=1;fontSize=15;fontStyle=0" parent="1" source="7_8doox-LUyNGBTueIZM-73" edge="1">
          <mxGeometry relative="1" as="geometry">
            <mxPoint x="340" y="850" as="targetPoint" />
          </mxGeometry>
        </mxCell>
        <mxCell id="7_8doox-LUyNGBTueIZM-73" value="p_active" style="rhombus;whiteSpace=wrap;html=1;fontSize=15;fontStyle=0;strokeWidth=1;fontColor=#000000;" parent="1" vertex="1">
          <mxGeometry x="453" y="810" width="80" height="80" as="geometry" />
        </mxCell>
        <mxCell id="DzYreBIAlxz-Bc4P912Z-2" style="edgeStyle=orthogonalEdgeStyle;rounded=0;orthogonalLoop=1;jettySize=auto;html=1;fontSize=15;fontStyle=0" parent="1" source="7_8doox-LUyNGBTueIZM-74" target="7_8doox-LUyNGBTueIZM-79" edge="1">
          <mxGeometry relative="1" as="geometry" />
        </mxCell>
        <mxCell id="7_8doox-LUyNGBTueIZM-74" value="out←d_active" style="whiteSpace=wrap;html=1;fontSize=15;fontStyle=0;strokeWidth=1;fontColor=#000000;" parent="1" vertex="1">
          <mxGeometry x="573" y="930" width="120" height="60" as="geometry" />
        </mxCell>
        <mxCell id="7_8doox-LUyNGBTueIZM-78" style="edgeStyle=orthogonalEdgeStyle;rounded=0;orthogonalLoop=1;jettySize=auto;html=1;fontSize=15;fontStyle=0;strokeWidth=1;fontColor=#000000;" parent="1" source="7_8doox-LUyNGBTueIZM-79" target="7_8doox-LUyNGBTueIZM-80" edge="1">
          <mxGeometry relative="1" as="geometry" />
        </mxCell>
        <mxCell id="DzYreBIAlxz-Bc4P912Z-14" style="edgeStyle=orthogonalEdgeStyle;rounded=0;orthogonalLoop=1;jettySize=auto;html=1;fontSize=15;fontStyle=0" parent="1" source="7_8doox-LUyNGBTueIZM-79" edge="1">
          <mxGeometry relative="1" as="geometry">
            <mxPoint x="340" y="1058" as="targetPoint" />
          </mxGeometry>
        </mxCell>
        <mxCell id="7_8doox-LUyNGBTueIZM-79" value="p_active" style="rhombus;whiteSpace=wrap;html=1;fontSize=15;fontStyle=0;strokeWidth=1;fontColor=#000000;" parent="1" vertex="1">
          <mxGeometry x="453" y="1018" width="80" height="80" as="geometry" />
        </mxCell>
        <mxCell id="7_8doox-LUyNGBTueIZM-80" value="out←d_active" style="whiteSpace=wrap;html=1;fontSize=15;fontStyle=0;strokeWidth=1;fontColor=#000000;" parent="1" vertex="1">
          <mxGeometry x="580" y="1128" width="120" height="60" as="geometry" />
        </mxCell>
        <mxCell id="7_8doox-LUyNGBTueIZM-81" style="edgeStyle=orthogonalEdgeStyle;rounded=0;orthogonalLoop=1;jettySize=auto;html=1;fontSize=15;fontStyle=0;strokeWidth=1;fontColor=#000000;" parent="1" source="7_8doox-LUyNGBTueIZM-82" target="7_8doox-LUyNGBTueIZM-83" edge="1">
          <mxGeometry relative="1" as="geometry" />
        </mxCell>
        <mxCell id="DzYreBIAlxz-Bc4P912Z-13" style="edgeStyle=orthogonalEdgeStyle;rounded=0;orthogonalLoop=1;jettySize=auto;html=1;fontSize=15;fontStyle=0" parent="1" source="7_8doox-LUyNGBTueIZM-82" edge="1">
          <mxGeometry relative="1" as="geometry">
            <mxPoint x="340" y="1260" as="targetPoint" />
          </mxGeometry>
        </mxCell>
        <mxCell id="7_8doox-LUyNGBTueIZM-82" value="p_active" style="rhombus;whiteSpace=wrap;html=1;fontSize=15;fontStyle=0;strokeWidth=1;fontColor=#000000;" parent="1" vertex="1">
          <mxGeometry x="453" y="1220" width="80" height="80" as="geometry" />
        </mxCell>
        <mxCell id="7_8doox-LUyNGBTueIZM-83" value="out←d_active" style="whiteSpace=wrap;html=1;fontSize=15;fontStyle=0;strokeWidth=1;fontColor=#000000;" parent="1" vertex="1">
          <mxGeometry x="580" y="1303" width="120" height="60" as="geometry" />
        </mxCell>
        <mxCell id="7_8doox-LUyNGBTueIZM-126" value="S1" style="text;html=1;align=center;verticalAlign=middle;resizable=0;points=[];autosize=1;fontSize=15;fontStyle=0;strokeWidth=1;strokeColor=none;fontColor=#000000;" parent="1" vertex="1">
          <mxGeometry x="555.5" y="530" width="40" height="30" as="geometry" />
        </mxCell>
        <mxCell id="7_8doox-LUyNGBTueIZM-127" value="001" style="text;html=1;align=center;verticalAlign=middle;resizable=0;points=[];autosize=1;fontSize=15;fontStyle=0;strokeWidth=1;strokeColor=none;fontColor=#000000;" parent="1" vertex="1">
          <mxGeometry x="655" y="530" width="50" height="30" as="geometry" />
        </mxCell>
        <mxCell id="7_8doox-LUyNGBTueIZM-128" value="S2" style="text;html=1;align=center;verticalAlign=middle;resizable=0;points=[];autosize=1;fontSize=15;fontStyle=0;strokeWidth=1;strokeColor=none;fontColor=#000000;" parent="1" vertex="1">
          <mxGeometry x="565.5" y="718" width="40" height="30" as="geometry" />
        </mxCell>
        <mxCell id="7_8doox-LUyNGBTueIZM-129" value="010" style="text;html=1;align=center;verticalAlign=middle;resizable=0;points=[];autosize=1;fontSize=15;fontStyle=0;strokeWidth=1;strokeColor=none;fontColor=#000000;" parent="1" vertex="1">
          <mxGeometry x="655" y="718" width="50" height="30" as="geometry" />
        </mxCell>
        <mxCell id="7_8doox-LUyNGBTueIZM-130" value="S3" style="text;html=1;align=center;verticalAlign=middle;resizable=0;points=[];autosize=1;fontSize=15;fontStyle=0;strokeWidth=1;strokeColor=none;fontColor=#000000;" parent="1" vertex="1">
          <mxGeometry x="565.5" y="908" width="40" height="30" as="geometry" />
        </mxCell>
        <mxCell id="7_8doox-LUyNGBTueIZM-131" value="011" style="text;html=1;align=center;verticalAlign=middle;resizable=0;points=[];autosize=1;fontSize=15;fontStyle=0;strokeWidth=1;strokeColor=none;fontColor=#000000;" parent="1" vertex="1">
          <mxGeometry x="655" y="908" width="50" height="30" as="geometry" />
        </mxCell>
        <mxCell id="7_8doox-LUyNGBTueIZM-132" value="S4" style="text;html=1;align=center;verticalAlign=middle;resizable=0;points=[];autosize=1;fontSize=15;fontStyle=0;strokeWidth=1;strokeColor=none;fontColor=#000000;" parent="1" vertex="1">
          <mxGeometry x="573" y="1100" width="40" height="30" as="geometry" />
        </mxCell>
        <mxCell id="7_8doox-LUyNGBTueIZM-133" value="100" style="text;html=1;align=center;verticalAlign=middle;resizable=0;points=[];autosize=1;fontSize=15;fontStyle=0;strokeWidth=1;strokeColor=none;fontColor=#000000;" parent="1" vertex="1">
          <mxGeometry x="655" y="1100" width="50" height="30" as="geometry" />
        </mxCell>
        <mxCell id="7_8doox-LUyNGBTueIZM-134" value="S5" style="text;html=1;align=center;verticalAlign=middle;resizable=0;points=[];autosize=1;fontSize=15;fontStyle=0;strokeWidth=1;strokeColor=none;fontColor=#000000;" parent="1" vertex="1">
          <mxGeometry x="565.5" y="1280" width="40" height="30" as="geometry" />
        </mxCell>
        <mxCell id="7_8doox-LUyNGBTueIZM-135" value="101" style="text;html=1;align=center;verticalAlign=middle;resizable=0;points=[];autosize=1;fontSize=15;fontStyle=0;strokeWidth=1;strokeColor=none;fontColor=#000000;" parent="1" vertex="1">
          <mxGeometry x="665" y="1280" width="50" height="30" as="geometry" />
        </mxCell>
        <mxCell id="7_8doox-LUyNGBTueIZM-254" value="0" style="text;html=1;align=center;verticalAlign=middle;resizable=0;points=[];autosize=1;strokeColor=none;fillColor=none;fontColor=#000000;fontSize=15;strokeWidth=1;fontStyle=0" parent="1" vertex="1">
          <mxGeometry x="435.5" y="628" width="30" height="30" as="geometry" />
        </mxCell>
        <mxCell id="7_8doox-LUyNGBTueIZM-255" value="1" style="text;html=1;align=center;verticalAlign=middle;resizable=0;points=[];autosize=1;strokeColor=none;fillColor=none;fontColor=#000000;fontSize=15;strokeWidth=1;fontStyle=0" parent="1" vertex="1">
          <mxGeometry x="515.5" y="628" width="30" height="30" as="geometry" />
        </mxCell>
        <mxCell id="7_8doox-LUyNGBTueIZM-256" value="0" style="text;html=1;align=center;verticalAlign=middle;resizable=0;points=[];autosize=1;strokeColor=none;fillColor=none;fontColor=#000000;fontSize=15;strokeWidth=1;fontStyle=0" parent="1" vertex="1">
          <mxGeometry x="435.5" y="820" width="30" height="30" as="geometry" />
        </mxCell>
        <mxCell id="7_8doox-LUyNGBTueIZM-257" value="1" style="text;html=1;align=center;verticalAlign=middle;resizable=0;points=[];autosize=1;strokeColor=none;fillColor=none;fontColor=#000000;fontSize=15;strokeWidth=1;fontStyle=0" parent="1" vertex="1">
          <mxGeometry x="515.5" y="820" width="30" height="30" as="geometry" />
        </mxCell>
        <mxCell id="7_8doox-LUyNGBTueIZM-258" value="0" style="text;html=1;align=center;verticalAlign=middle;resizable=0;points=[];autosize=1;strokeColor=none;fillColor=none;fontColor=#000000;fontSize=15;strokeWidth=1;fontStyle=0" parent="1" vertex="1">
          <mxGeometry x="440" y="1030" width="30" height="30" as="geometry" />
        </mxCell>
        <mxCell id="7_8doox-LUyNGBTueIZM-261" value="1" style="text;html=1;align=center;verticalAlign=middle;resizable=0;points=[];autosize=1;strokeColor=none;fillColor=none;fontColor=#000000;fontSize=15;strokeWidth=1;fontStyle=0" parent="1" vertex="1">
          <mxGeometry x="525.5" y="1030" width="30" height="30" as="geometry" />
        </mxCell>
        <mxCell id="7_8doox-LUyNGBTueIZM-262" value="0" style="text;html=1;align=center;verticalAlign=middle;resizable=0;points=[];autosize=1;strokeColor=none;fillColor=none;fontColor=#000000;fontSize=15;strokeWidth=1;fontStyle=0" parent="1" vertex="1">
          <mxGeometry x="435.5" y="1230" width="30" height="30" as="geometry" />
        </mxCell>
        <mxCell id="7_8doox-LUyNGBTueIZM-263" value="1" style="text;html=1;align=center;verticalAlign=middle;resizable=0;points=[];autosize=1;strokeColor=none;fillColor=none;fontColor=#000000;fontSize=15;strokeWidth=1;fontStyle=0" parent="1" vertex="1">
          <mxGeometry x="520.5" y="1230" width="30" height="30" as="geometry" />
        </mxCell>
        <mxCell id="DzYreBIAlxz-Bc4P912Z-1" style="edgeStyle=orthogonalEdgeStyle;rounded=0;orthogonalLoop=1;jettySize=auto;html=1;entryX=0.538;entryY=0.048;entryDx=0;entryDy=0;entryPerimeter=0;fontSize=15;fontStyle=0" parent="1" source="7_8doox-LUyNGBTueIZM-80" target="7_8doox-LUyNGBTueIZM-82" edge="1">
          <mxGeometry relative="1" as="geometry" />
        </mxCell>
        <mxCell id="DzYreBIAlxz-Bc4P912Z-4" style="edgeStyle=orthogonalEdgeStyle;rounded=0;orthogonalLoop=1;jettySize=auto;html=1;entryX=0.478;entryY=0.002;entryDx=0;entryDy=0;entryPerimeter=0;fontSize=15;fontStyle=0" parent="1" source="lQ2lAUUzrBHqBKWSUGlg-21" target="7_8doox-LUyNGBTueIZM-58" edge="1">
          <mxGeometry relative="1" as="geometry" />
        </mxCell>
        <mxCell id="DzYreBIAlxz-Bc4P912Z-5" value="p_active" style="rhombus;whiteSpace=wrap;html=1;fontSize=15;fontStyle=0;strokeWidth=1;fontColor=#000000;" parent="1" vertex="1">
          <mxGeometry x="453" y="1390" width="80" height="80" as="geometry" />
        </mxCell>
        <mxCell id="DzYreBIAlxz-Bc4P912Z-7" style="edgeStyle=orthogonalEdgeStyle;rounded=0;orthogonalLoop=1;jettySize=auto;html=1;entryX=0.488;entryY=-0.007;entryDx=0;entryDy=0;entryPerimeter=0;fontSize=15;fontStyle=0" parent="1" source="7_8doox-LUyNGBTueIZM-83" target="DzYreBIAlxz-Bc4P912Z-5" edge="1">
          <mxGeometry relative="1" as="geometry" />
        </mxCell>
        <mxCell id="DzYreBIAlxz-Bc4P912Z-20" value="" style="edgeStyle=orthogonalEdgeStyle;rounded=0;orthogonalLoop=1;jettySize=auto;html=1;fontSize=15;fontStyle=0;entryX=0.464;entryY=-0.048;entryDx=0;entryDy=0;entryPerimeter=0;" parent="1" source="DzYreBIAlxz-Bc4P912Z-18" target="DzYreBIAlxz-Bc4P912Z-19" edge="1">
          <mxGeometry relative="1" as="geometry">
            <Array as="points">
              <mxPoint x="430" y="190" />
              <mxPoint x="430" y="250" />
              <mxPoint x="620" y="250" />
              <mxPoint x="620" y="337" />
            </Array>
          </mxGeometry>
        </mxCell>
        <mxCell id="DzYreBIAlxz-Bc4P912Z-18" value="period&amp;nbsp;← 0,&lt;br style=&quot;font-size: 15px;&quot;&gt;dutyFrac&amp;nbsp;← 0," style="ellipse;whiteSpace=wrap;html=1;fontSize=15;fontStyle=0" parent="1" vertex="1">
          <mxGeometry x="665" y="150" width="120" height="80" as="geometry" />
        </mxCell>
        <mxCell id="DzYreBIAlxz-Bc4P912Z-24" value="" style="edgeStyle=orthogonalEdgeStyle;rounded=0;orthogonalLoop=1;jettySize=auto;html=1;fontSize=15;fontStyle=0;entryX=0.483;entryY=-0.002;entryDx=0;entryDy=0;entryPerimeter=0;" parent="1" source="DzYreBIAlxz-Bc4P912Z-19" target="lQ2lAUUzrBHqBKWSUGlg-19" edge="1">
          <mxGeometry relative="1" as="geometry">
            <mxPoint x="650" y="280" as="targetPoint" />
          </mxGeometry>
        </mxCell>
        <mxCell id="DzYreBIAlxz-Bc4P912Z-19" value="out&amp;nbsp;← 0" style="whiteSpace=wrap;html=1;fontSize=15;fontStyle=0" parent="1" vertex="1">
          <mxGeometry x="565.5" y="340" width="120" height="60" as="geometry" />
        </mxCell>
        <mxCell id="DzYreBIAlxz-Bc4P912Z-21" value="IDLE" style="text;html=1;align=center;verticalAlign=middle;resizable=0;points=[];autosize=1;strokeColor=none;fillColor=none;fontSize=15;fontStyle=0" parent="1" vertex="1">
          <mxGeometry x="545.5" y="300" width="60" height="30" as="geometry" />
        </mxCell>
        <mxCell id="DzYreBIAlxz-Bc4P912Z-22" value="000" style="text;html=1;align=center;verticalAlign=middle;resizable=0;points=[];autosize=1;strokeColor=none;fillColor=none;fontSize=15;fontStyle=0" parent="1" vertex="1">
          <mxGeometry x="655" y="300" width="50" height="30" as="geometry" />
        </mxCell>
        <mxCell id="DzYreBIAlxz-Bc4P912Z-26" style="edgeStyle=orthogonalEdgeStyle;rounded=0;orthogonalLoop=1;jettySize=auto;html=1;entryX=1.017;entryY=0.614;entryDx=0;entryDy=0;entryPerimeter=0;fontSize=15;fontStyle=0;exitX=0.397;exitY=1;exitDx=0;exitDy=0;exitPerimeter=0;" parent="1" source="LTmUP5jKH5nxpWFjnkwC-1" edge="1">
          <mxGeometry relative="1" as="geometry">
            <Array as="points">
              <mxPoint x="860" y="190" />
            </Array>
            <mxPoint x="870" y="150" as="sourcePoint" />
            <mxPoint x="787.04" y="190" as="targetPoint" />
          </mxGeometry>
        </mxCell>
        <mxCell id="DzYreBIAlxz-Bc4P912Z-28" style="edgeStyle=orthogonalEdgeStyle;rounded=0;orthogonalLoop=1;jettySize=auto;html=1;fontSize=15;fontStyle=0" parent="1" source="DzYreBIAlxz-Bc4P912Z-5" edge="1">
          <mxGeometry relative="1" as="geometry">
            <Array as="points">
              <mxPoint x="340" y="1430" />
              <mxPoint x="340" y="279" />
              <mxPoint x="493" y="279" />
              <mxPoint x="540" y="280" />
            </Array>
            <mxPoint x="620" y="280" as="targetPoint" />
          </mxGeometry>
        </mxCell>
        <mxCell id="DzYreBIAlxz-Bc4P912Z-32" value="0" style="text;html=1;align=center;verticalAlign=middle;resizable=0;points=[];autosize=1;strokeColor=none;fillColor=none;fontSize=15;fontStyle=0" parent="1" vertex="1">
          <mxGeometry x="435" y="1398" width="30" height="30" as="geometry" />
        </mxCell>
        <mxCell id="LTmUP5jKH5nxpWFjnkwC-1" value="&lt;font style=&quot;font-size: 15px;&quot;&gt;reset&lt;/font&gt;" style="text;html=1;align=center;verticalAlign=middle;resizable=0;points=[];autosize=1;strokeColor=none;fillColor=none;" parent="1" vertex="1">
          <mxGeometry x="835" y="110" width="60" height="30" as="geometry" />
        </mxCell>
      </root>
    </mxGraphModel>
  </diagram>
</mxfile>
